<svg xmlns="http://www.w3.org/2000/svg" xmlns:xlink="http://www.w3.org/1999/xlink" width="50" zoomAndPan="magnify" viewBox="0 0 37.5 37.499999" height="50" preserveAspectRatio="xMidYMid meet" version="1.0"><defs><clipPath id="0d040096e9"><path d="M 0 0 L 37.007812 0 L 37.007812 37.007812 L 0 37.007812 Z M 0 0 " clip-rule="nonzero"/></clipPath></defs><g clip-path="url(#0d040096e9)"><path fill="#0277b5" d="M 34.367188 0 L 3.152344 0 C 1.425781 0 0.0390625 1.40625 0.0390625 3.113281 L 0.0390625 34.386719 C 0.0390625 36.113281 1.445312 37.5 3.152344 37.5 L 34.347656 37.5 C 36.074219 37.5 37.460938 36.09375 37.460938 34.386719 L 37.460938 3.113281 C 37.480469 1.40625 36.09375 0 34.367188 0 Z M 11.125 30.933594 L 5.589844 30.933594 L 5.589844 14.3125 L 11.125 14.3125 Z M 8.347656 12.304688 C 6.601562 12.304688 5.195312 10.898438 5.195312 9.15625 C 5.195312 7.410156 6.601562 6.003906 8.347656 6.003906 C 10.09375 6.003906 11.5 7.410156 11.5 9.15625 C 11.5 10.898438 10.09375 12.304688 8.347656 12.304688 Z M 31.945312 30.933594 L 26.394531 30.933594 L 26.261719 21.066406 C 26.261719 21.066406 26.394531 18.441406 23.523438 18.460938 C 20.652344 18.476562 20.261719 21.066406 20.261719 21.066406 L 20.261719 30.933594 L 14.667969 30.933594 L 14.667969 14.3125 L 20.035156 14.3125 L 20.035156 16.601562 C 20.035156 16.601562 20.261719 15.851562 21.5 14.96875 C 22.738281 14.089844 24.78125 13.902344 25.664062 13.9375 C 26.542969 13.976562 27.746094 13.824219 29.753906 15.214844 C 31.910156 16.695312 31.964844 20.578125 31.964844 20.578125 Z M 31.945312 30.933594 " fill-opacity="1" fill-rule="nonzero"/></g></svg>